<?xml version="1.0" encoding="UTF-8" standalone="no"?>
<!DOCTYPE svg PUBLIC "-//W3C//DTD SVG 1.1//EN" "http://www.w3.org/Graphics/SVG/1.1/DTD/svg11.dtd">
<svg width="100%" height="100%" viewBox="0 0 820 820" version="1.1" xmlns="http://www.w3.org/2000/svg" xmlns:xlink="http://www.w3.org/1999/xlink" xml:space="preserve" xmlns:serif="http://www.serif.com/" style="fill-rule:evenodd;clip-rule:evenodd;stroke-linejoin:round;stroke-miterlimit:2;">
    <g transform="matrix(1,0,0,1,-789.124,-1192.9)">
        <g transform="matrix(1.48518,0,0,1.48518,156.067,8.75834)">
            <g id="Red">
                <rect x="426.25" y="797.306" width="551.746" height="551.746" style="fill:rgb(255,0,0);"/>
            </g>
        </g>
        <g id="Dark-Red" serif:id="Dark Red">
            <g transform="matrix(1.48518,0,0,1.48518,166.007,8.75834)">
                <g transform="matrix(1,0,0,1,0,11.8975)">
                    <circle cx="566.046" cy="943.05" r="83.282" style="fill:rgb(184,0,0);"/>
                </g>
                <g transform="matrix(1,0,0,1,258.77,11.8975)">
                    <circle cx="566.046" cy="943.05" r="83.282" style="fill:rgb(184,0,0);"/>
                </g>
            </g>
            <g transform="matrix(1.48518,0,0,1.48518,170.424,8.75834)">
                <g transform="matrix(1,0,0,1,-2.97437,246.873)">
                    <circle cx="566.046" cy="943.05" r="83.282" style="fill:rgb(184,0,0);"/>
                </g>
                <g transform="matrix(1,0,0,1,255.796,246.873)">
                    <circle cx="566.046" cy="943.05" r="83.282" style="fill:rgb(184,0,0);"/>
                </g>
            </g>
        </g>
    </g>
</svg>
